<svg xmlns="http://www.w3.org/2000/svg" viewBox="0 0 80 60" width="80" height="60">
  <!-- Carrier frame -->
  <rect x="2" y="28" width="60" height="6" rx="2" fill="#0F172A"/>
  <rect x="2" y="20" width="60" height="6" rx="2" fill="#0F172A" opacity="0.6"/>
  <!-- Upper deck cars -->
  <rect x="8" y="14" width="18" height="8" rx="2" fill="#F59E0B" opacity="0.8"/>
  <rect x="30" y="14" width="18" height="8" rx="2" fill="#F59E0B" opacity="0.8"/>
  <!-- Lower deck cars -->
  <rect x="8" y="22" width="18" height="8" rx="2" fill="#F59E0B"/>
  <rect x="30" y="22" width="18" height="8" rx="2" fill="#F59E0B"/>
  <!-- Cab -->
  <rect x="62" y="20" width="16" height="14" rx="3" fill="#0F172A"/>
  <rect x="65" y="23" width="9" height="8" rx="1" fill="#93C5FD" opacity="0.7"/>
  <!-- Wheels -->
  <circle cx="12" cy="36" r="5" fill="#374151"/>
  <circle cx="12" cy="36" r="2" fill="#9CA3AF"/>
  <circle cx="28" cy="36" r="5" fill="#374151"/>
  <circle cx="28" cy="36" r="2" fill="#9CA3AF"/>
  <circle cx="50" cy="36" r="5" fill="#374151"/>
  <circle cx="50" cy="36" r="2" fill="#9CA3AF"/>
  <circle cx="70" cy="36" r="5" fill="#374151"/>
  <circle cx="70" cy="36" r="2" fill="#9CA3AF"/>
</svg>
